<svg width="64" height="64" viewBox="0 0 64 64" xmlns="http://www.w3.org/2000/svg" aria-label="FreshPrn favicon">
  <defs>
    <linearGradient id="g1" x1="0" y1="0" x2="1" y2="1">
      <stop offset="0%" stop-color="#3b82f6"/>
      <stop offset="100%" stop-color="#06b6d4"/>
    </linearGradient>
    <linearGradient id="g2" x1="0" y1="0" x2="1" y2="1">
      <stop offset="0%" stop-color="#22d3ee"/>
      <stop offset="100%" stop-color="#10b981"/>
    </linearGradient>
    <mask id="pmask">
      <rect x="0" y="0" width="64" height="64" fill="#fff" />
      <circle cx="40" cy="28" r="6" fill="#000" />
    </mask>
  </defs>
  <!-- base sheet -->
  <path d="M10 6h30l14 14v34a4 4 0 0 1-4 4H10a4 4 0 0 1-4-4V10a4 4 0 0 1 4-4z" fill="url(#g1)"/>
  <!-- folded corner -->
  <path d="M40 6v14a4 4 0 0 0 4 4h14L40 6z" fill="white" fill-opacity="0.9"/>
  <!-- FP monogram -->
  <rect x="18" y="18" width="8" height="28" rx="2" fill="url(#g2)"/>
  <rect x="26" y="18" width="18" height="8" rx="2" fill="url(#g2)"/>
  <rect x="26" y="30" width="12" height="8" rx="2" fill="url(#g2)"/>
  <rect x="26" y="18" width="18" height="20" rx="10" fill="url(#g2)" mask="url(#pmask)"/>
</svg>
